<svg xmlns="http://www.w3.org/2000/svg" viewBox="0 0 32 32" width="128" height="128">
  <g>
    <circle cx="16" cy="16" r="16" fill="transparent"/>
    <path fill="#181717" d="M16 2.5C8.27 2.5 2 8.77 2 16.5c0 6.18 4 11.42 9.5 13.27.7.13.95-.3.95-.67 0-.33-.01-1.21-.02-2.37-3.86.84-4.68-1.86-4.68-1.86-.64-1.62-1.56-2.05-1.56-2.05-1.27-.87.1-.85.1-.85 1.4.1 2.14 1.44 2.14 1.44 1.25 2.14 3.28 1.52 4.08 1.16.13-.91.49-1.52.89-1.87-3.08-.35-6.32-1.54-6.32-6.85 0-1.51.54-2.74 1.43-3.71-.14-.36-.62-1.8.14-3.75 0 0 1.17-.38 3.85 1.42a13.3 13.3 0 0 1 3.5-.47c1.19.01 2.39.16 3.5.47 2.67-1.8 3.84-1.42 3.84-1.42.76 1.95.28 3.39.14 3.75.89.97 1.43 2.2 1.43 3.71 0 5.32-3.25 6.5-6.34 6.85.5.43.94 1.28.94 2.58 0 1.86-.02 3.36-.02 3.82 0 .37.25.81.96.67C26 27.92 30 22.68 30 16.5c0-7.73-6.27-14-14-14z"/>
  </g>
</svg>
